<?xml version="1.0" encoding="UTF-8"?>
<svg width="17px" height="18px" viewBox="0 0 17 18" version="1.1" xmlns="http://www.w3.org/2000/svg" xmlns:xlink="http://www.w3.org/1999/xlink">
    <!-- Generator: Sketch 48.1 (47250) - http://www.bohemiancoding.com/sketch -->
    <title>ui-73</title>
    <desc>Created with Sketch.</desc>
    <defs>
        <linearGradient x1="0%" y1="0%" x2="100%" y2="100%" id="linearGradient-1">
            <stop stop-color="#0CB1E6" offset="0%"></stop>
            <stop stop-color="#23ECA4" offset="100%"></stop>
        </linearGradient>
    </defs>
    <g id="10---Performance-Copy-5" stroke="none" stroke-width="1" fill="none" fill-rule="evenodd" transform="translate(-1146.000000, -345.000000)">
        <g id="life" transform="translate(524.000000, 134.000000)" fill="url(#linearGradient-1)" fill-rule="nonzero">
            <g id="info" transform="translate(382.000000, 112.000000)">
                <g id="Group-29" transform="translate(0.000000, 96.000000)">
                    <g id="Group-23">
                        <g id="Group-24">
                            <g id="ui-73" transform="translate(240.000000, 3.000000)">
                                <path d="M8.99585996,8.91082206 C8.99859888,8.93929383 9,8.96815008 9,8.99732713 L9,14.4026729 C9,14.898253 8.60052168,15.3 8.1,15.3 C7.60294372,15.3 7.2,14.8974688 7.2,14.4026729 L7.2,8.99732713 C7.2,8.9681427 7.20138537,8.9392837 7.20409518,8.91081297 C5.14803892,8.49545357 3.6,6.67850872 3.6,4.5 C3.6,2.01471862 5.61471863,0 8.1,0 C10.5852814,0 12.6,2.01471862 12.6,4.5 C12.6,6.67852457 11.0519386,8.49547998 8.99585996,8.91082206 Z M10.8,4.5 C10.8,3.00883118 9.59116882,1.8 8.1,1.8 C6.60883117,1.8 5.4,3.00883118 5.4,4.5 C5.4,5.99116883 6.60883117,7.2 8.1,7.2 C9.59116882,7.2 10.8,5.99116883 10.8,4.5 Z M0,14.85 C0,16.8717448 3.61041669,18 8.1,18 C12.5895833,18 16.2,16.8717448 16.2,14.85 C16.2,13.2456069 14.0734166,12.2743828 10.9367281,11.8736901 C10.4436785,11.810706 9.99292414,12.159343 9.92994007,12.6523927 C9.86695601,13.1454423 10.215593,13.5961967 10.7086427,13.6591808 C11.9309471,13.8153227 12.9684715,14.0781165 13.6724386,14.3996227 C13.9822108,14.5410976 14.0313319,14.5996057 14.0313319,14.5996057 C14.2349417,14.7378947 14.235654,14.9723785 14.0288723,15.1027156 C14.0288723,15.1027156 13.9181189,15.2708965 12.9227213,15.5819583 C11.6745439,15.9720138 9.94967968,16.2 8.1,16.2 C6.25032031,16.2 4.52545614,15.9720138 3.27727867,15.5819583 C2.28188106,15.2708965 2.16536522,15.099331 2.16536522,15.099331 C1.96357959,14.9616293 1.9613723,14.7361664 2.17196811,14.5978589 C2.17196811,14.5978589 2.22171574,14.5387578 2.53374849,14.3968025 C3.24239854,14.0744114 4.286142,13.8114997 5.51469276,13.6562156 C6.00782553,13.5938855 6.35706009,13.1435939 6.29472996,12.6504611 C6.23239987,12.1573284 5.78210827,11.8080938 5.28897555,11.870424 C2.13859372,12.2686201 0,13.2415456 0,14.85 Z" id="Combined-Shape"></path>
                            </g>
                        </g>
                    </g>
                </g>
            </g>
        </g>
    </g>
</svg>