<?xml version="1.0" encoding="UTF-8"?>
<svg width="22px" height="18px" viewBox="0 0 22 18" version="1.1" xmlns="http://www.w3.org/2000/svg" xmlns:xlink="http://www.w3.org/1999/xlink">
    <!-- Generator: Sketch 48.1 (47250) - http://www.bohemiancoding.com/sketch -->
    <title>tech-01</title>
    <desc>Created with Sketch.</desc>
    <defs></defs>
    <g id="10---Performance-Copy-5" stroke="none" stroke-width="1" fill="none" fill-rule="evenodd" transform="translate(-33.000000, -398.000000)">
        <g id="nav-left" fill="#FFFFFF">
            <g id="tech-01" transform="translate(29.000000, 392.000000)">
                <rect id="Rectangle-4" opacity="0" x="0" y="0" width="30" height="30"></rect>
                <path d="M14.1008846,12.4166667 C14.2474064,10.0458654 15.356086,8.75033623 18.2007663,8.75033623 C19.5248456,8.75033623 20.2730157,8.37870433 20.6694688,7.78360703 C20.8007335,7.58657157 20.886314,7.37214597 20.9336441,7.15741918 C20.9608219,7.03411928 20.9688329,6.9474819 20.9687501,6.92336148 C20.965053,6.41711396 21.3724505,6.00372212 21.8786981,6.00002497 C22.3849456,5.99632781 22.7983374,6.40372538 22.802054,6.91353844 C22.8026217,7.06816611 22.7823606,7.28728451 22.724001,7.55204973 C22.6303715,7.97682757 22.4610762,8.40100429 22.1952238,8.80006306 C21.446508,9.92392555 20.1183099,10.5836696 18.2007663,10.5836696 C16.5180232,10.5836696 16.0294167,11.0319039 15.9353458,12.4166667 L20.5,12.4166667 C23.5375661,12.4166667 26,14.8791005 26,17.9166667 C26,20.9542328 23.5375661,23.4166667 20.5,23.4166667 C18.8710837,23.4166667 17.4075591,22.7085405 16.4004714,21.5833333 L13.5995286,21.5833333 C12.5924409,22.7085405 11.1289163,23.4166667 9.5,23.4166667 C6.46243388,23.4166667 4,20.9542328 4,17.9166667 C4,14.8791005 6.46243388,12.4166667 9.5,12.4166667 L14.1008846,12.4166667 Z M12.4747654,20.091037 C12.6433428,19.9026875 12.9823166,19.75 13.2384363,19.75 L16.7615637,19.75 C17.0147501,19.75 17.3579169,19.9040948 17.5252346,20.091037 L17.766552,20.3606581 C18.4593356,21.134697 19.441365,21.5833333 20.5,21.5833333 C22.5250441,21.5833333 24.1666667,19.9417108 24.1666667,17.9166667 C24.1666667,15.8916226 22.5250441,14.25 20.5,14.25 L9.5,14.25 C7.47495592,14.25 5.83333333,15.8916226 5.83333333,17.9166667 C5.83333333,19.9417108 7.47495592,21.5833333 9.5,21.5833333 C10.5586351,21.5833333 11.5406644,21.134697 12.233448,20.3606581 L12.4747654,20.091037 Z M10.4166667,17 L10.4166667,16.087243 C10.4166667,15.5800606 10.006261,15.1666667 9.5,15.1666667 C8.9902094,15.1666667 8.58333333,15.5788227 8.58333333,16.087243 L8.58333333,17 L7.67057634,17 C7.16339392,17 6.75,17.4104056 6.75,17.9166667 C6.75,18.4264573 7.16215607,18.8333333 7.67057634,18.8333333 L8.58333333,18.8333333 L8.58333333,19.7460903 C8.58333333,20.2532727 8.99373898,20.6666667 9.5,20.6666667 C10.0097906,20.6666667 10.4166667,20.2545106 10.4166667,19.7460903 L10.4166667,18.8333333 L11.3294237,18.8333333 C11.8366061,18.8333333 12.25,18.4229277 12.25,17.9166667 C12.25,17.4068761 11.8378439,17 11.3294237,17 L10.4166667,17 Z M21.4166667,19.75 C21.9229277,19.75 22.3333333,19.3395944 22.3333333,18.8333333 C22.3333333,18.3270723 21.9229277,17.9166667 21.4166667,17.9166667 C20.9104056,17.9166667 20.5,18.3270723 20.5,18.8333333 C20.5,19.3395944 20.9104056,19.75 21.4166667,19.75 Z M19.125,17.9166667 C19.631261,17.9166667 20.0416667,17.506261 20.0416667,17 C20.0416667,16.493739 19.631261,16.0833333 19.125,16.0833333 C18.618739,16.0833333 18.2083333,16.493739 18.2083333,17 C18.2083333,17.506261 18.618739,17.9166667 19.125,17.9166667 Z" id="Combined-Shape" fill-rule="nonzero"></path>
            </g>
        </g>
    </g>
</svg>