<?xml version="1.0" encoding="UTF-8"?>
<svg width="25px" height="18px" viewBox="0 0 25 18" version="1.1" xmlns="http://www.w3.org/2000/svg" xmlns:xlink="http://www.w3.org/1999/xlink">
    <!-- Generator: Sketch 48.1 (47250) - http://www.bohemiancoding.com/sketch -->
    <title>Group 8</title>
    <desc>Created with Sketch.</desc>
    <defs></defs>
    <g id="10---Performance" stroke="none" stroke-width="1" fill="none" fill-rule="evenodd" transform="translate(-32.000000, -375.000000)">
        <g id="Menu" fill-rule="nonzero">
            <g id="Primary-Navigation">
                <g id="Accounts" transform="translate(20.000000, 20.000000)">
                    <g id="Account-3" transform="translate(0.000000, 136.000000)">
                        <g id="Group-7-Copy" transform="translate(0.000000, 204.000000)">
                            <g id="Group-8" transform="translate(12.000000, 15.000000)">
                                <path d="M17.4720513,0.0792244281 C17.4720513,0.0792244281 14.4693914,0.675234678 12.5381565,0.675234678 C10.6069216,0.675234678 7.61185718,0.0803816781 7.61185718,0.0803816781 C6.44500011,-0.10589225 5.35145018,0.0380612495 4.41216475,0.445024714 C2.74753225,0.913985428 1.38527054,2.38795786 1.15371171,4.13369832 L0.0475984999,12.472775 C-0.346861179,15.4466383 1.75377964,17.8571429 4.739464,17.8571429 L6.39436239,17.8571429 C6.97544421,17.8571429 7.56999654,17.4002665 7.72206707,16.8366808 C7.72206707,16.8366808 8.08353979,14.2338991 9.20238711,12.9170967 C10.2235345,11.7152801 11.9818362,11.7889217 12.5381565,11.7889217 C13.0810846,11.7889217 14.8664965,11.7132766 15.8739259,12.9170967 C16.9745072,14.2322278 17.2779329,16.8366808 17.2779329,16.8366808 C17.4300035,17.4002665 18.0245558,17.8571429 18.6056376,17.8571429 L20.260536,17.8571429 C23.2462204,17.8571429 25.3468612,15.4466383 24.9524015,12.472775 L23.8462883,4.13369832 C23.6301889,2.50450761 22.4293235,1.11200846 20.9169509,0.552172214 C20.9169509,0.552172214 18.7425517,-0.129321108 17.4720513,0.0792244281 Z" id="Shape" fill="#FFFFFF"></path>
                                <path d="M7.83468614,5.54482125 L7.83468614,3.57762761 C7.83468614,3.14371314 7.484003,2.79631082 7.05141339,2.79631082 L6.26568618,2.79631082 C5.83457243,2.79631082 5.48241343,3.14611825 5.48241343,3.57762761 L5.48241343,5.54482125 L3.51521979,5.54482125 C3.08130532,5.54482125 2.733903,5.89550439 2.733903,6.328094 L2.733903,7.11382121 C2.733903,7.544935 3.08371043,7.89709396 3.51521979,7.89709396 L5.48241343,7.89709396 L5.48241343,9.86428761 C5.48241343,10.2982021 5.83309657,10.6456044 6.26568618,10.6456044 L7.05141339,10.6456044 C7.48252714,10.6456044 7.83468614,10.295797 7.83468614,9.86428761 L7.83468614,7.89709396 L9.80187979,7.89709396 C10.2357943,7.89709396 10.5831966,7.54641082 10.5831966,7.11382121 L10.5831966,6.328094 C10.5831966,5.89698025 10.2333891,5.54482125 9.80187979,5.54482125 L7.83468614,5.54482125 Z M18.1454275,5.15109889 C17.387605,5.15109889 16.7732684,4.53610543 16.7732684,3.77747254 C16.7732684,3.01883964 17.387605,2.40384614 18.1454275,2.40384614 C18.90325,2.40384614 19.5175866,3.01883964 19.5175866,3.77747254 C19.5175866,4.53610543 18.90325,5.15109889 18.1454275,5.15109889 Z M15.4011093,7.89835164 C14.6432868,7.89835164 14.0289502,7.28335818 14.0289502,6.52472529 C14.0289502,5.76609239 14.6432868,5.15109889 15.4011093,5.15109889 C16.1589319,5.15109889 16.7732684,5.76609239 16.7732684,6.52472529 C16.7732684,7.28335818 16.1589319,7.89835164 15.4011093,7.89835164 Z M20.8897457,7.89835164 C20.1319231,7.89835164 19.5175866,7.28335818 19.5175866,6.52472529 C19.5175866,5.76609239 20.1319231,5.15109889 20.8897457,5.15109889 C21.6475682,5.15109889 22.2619048,5.76609239 22.2619048,6.52472529 C22.2619048,7.28335818 21.6475682,7.89835164 20.8897457,7.89835164 Z M18.1454275,10.6456044 C17.387605,10.6456044 16.7732684,10.0306109 16.7732684,9.27197804 C16.7732684,8.51334511 17.387605,7.89835164 18.1454275,7.89835164 C18.90325,7.89835164 19.5175866,8.51334511 19.5175866,9.27197804 C19.5175866,10.0306109 18.90325,10.6456044 18.1454275,10.6456044 Z" id="Shape" fill="#2CD14C"></path>
                            </g>
                        </g>
                    </g>
                </g>
            </g>
        </g>
    </g>
</svg>