<?xml version="1.0" encoding="UTF-8"?>
<svg width="12px" height="12px" viewBox="0 0 12 12" version="1.1" xmlns="http://www.w3.org/2000/svg" xmlns:xlink="http://www.w3.org/1999/xlink">
    <!-- Generator: Sketch 48.1 (47250) - http://www.bohemiancoding.com/sketch -->
    <title>send_round-[#1569]</title>
    <desc>Created with Sketch.</desc>
    <defs></defs>
    <g id="10---Performance-Copy-5" stroke="none" stroke-width="1" fill="none" fill-rule="evenodd" transform="translate(-291.000000, -279.000000)">
        <g id="sub-nav" transform="translate(88.000000, 0.000000)" fill="#FFFFFF" fill-rule="nonzero" stroke="#FFFFFF" stroke-width="0.5">
            <g id="Menu" transform="translate(30.000000, 86.000000)">
                <g id="send-round-1569" transform="translate(174.000000, 194.000000)">
                    <path d="M8.63197683,2.13857717 C8.78797683,1.98257717 8.9935,2.111 9,2.3315 L9,3.0145 C9.008,3.2905 9.224,3.52603301 9.5,3.52603301 C9.776,3.52563054 10,3.262 10,2.986 L10,1 C10,0.45 9.55,0 9,0 L7.2415,0 C6.965,0 6.62950187,0.2125 6.62950187,0.4885 C6.62950187,0.766 6.8235,0.997 7.0995,1.0045 L7.73310738,1.0045 C7.95360738,1.01 8.01596466,1.27507717 7.86046466,1.43107717 L4.96696466,4.33907717 C4.77196466,4.53407717 4.77896466,4.85057717 4.97446466,5.04607717 C5.16946466,5.24107717 5.49296466,5.24157717 5.68846466,5.04607717 L8.63197683,2.13857717 Z M10,9.0075 C10,9.5585 9.775,10 9.224,10 L1.22,10 C0.669,10 0,9.5585 0,9.0075 L0,1.0035 C0,0.452 0.669,0 1.22,0 L3.722,0 C3.998,0 4.222,0.224 4.222,0.5 C4.222,0.7765 3.998,1 3.722,1 L1.722,1 C1.446,1 1,1.229 1,1.5055 L1,8.0075 C1,8.5585 1.669,9 2.22,9 L8.722,9 C8.998,9 9,8.7815 9,8.5055 L9,6.5055 C9,6.229 9.2235,6.0055 9.5,6.0055 C9.776,6.0055 10,6.229 10,6.5055 L10,9.0075 Z" id="send_round-[#1569]"></path>
                </g>
            </g>
        </g>
    </g>
</svg>