<?xml version="1.0" encoding="UTF-8"?>
<svg width="20px" height="22px" viewBox="0 0 20 22" version="1.1" xmlns="http://www.w3.org/2000/svg" xmlns:xlink="http://www.w3.org/1999/xlink">
    <!-- Generator: Sketch 48.1 (47250) - http://www.bohemiancoding.com/sketch -->
    <title>finance-34</title>
    <desc>Created with Sketch.</desc>
    <defs></defs>
    <g id="10---Performance-Copy-5" stroke="none" stroke-width="1" fill="none" fill-rule="evenodd" transform="translate(-34.000000, -899.000000)">
        <g id="nav-left" fill="#FFFFFF">
            <g id="finance-34" transform="translate(29.000000, 895.000000)">
                <rect id="Rectangle-4" opacity="0" x="0" y="0" width="30" height="30"></rect>
                <path d="M5,24.8986518 C5,25.7163193 5.86923612,26.2481303 6.60801511,25.8824583 L8.33649139,25.029893 L10.0602504,25.8825783 C10.373097,26.0373328 10.7412884,26.0372439 11.0540586,25.8823381 L12.7812264,25.0301878 L14.503096,25.8824583 C14.8159043,26.0372884 15.1840957,26.0372884 15.496904,25.8824583 L17.2251554,25.0299327 L18.9475404,25.8824583 C19.2603488,26.0372884 19.6285401,26.0372884 19.9413484,25.8824583 L21.6792571,25.0347126 L23.3919849,25.8824583 C24.1307639,26.2481303 25,25.7163193 25,24.8986518 L25,6.1996971 C25,4.98217934 24.0049671,4 22.7768093,4 L7.22319072,4 C5.99248475,4 5,4.98385647 5,6.1996971 L5,24.8986518 Z M22.7768093,6.19985809 C22.7791016,6.19985809 22.7833388,23.1217337 22.7833388,23.1217337 L22.1635707,22.8149163 C21.8507623,22.6600862 21.482571,22.6600862 21.1697627,22.8149163 L19.4611274,23.6761962 L17.7191262,22.8149163 C17.4063179,22.6600862 17.0381266,22.6600862 16.7253182,22.8149163 L15,23.6710537 L13.2746818,22.8149163 C12.961788,22.6600439 12.5934866,22.6600884 12.2806311,22.8150365 L10.5666775,23.6727841 L8.82999478,22.8147963 C8.51723367,22.660084 8.14915233,22.6601284 7.83642933,22.8149163 L7.22222222,23.1173763 L7.22222222,6.1996971 C7.22222222,6.19812389 22.7768093,6.19985809 22.7768093,6.19985809 Z M15,18.2990776 C15,17.6916035 15.4930185,17.1991485 16.1108972,17.1991485 L19.4446583,17.1991485 C20.0581899,17.1991485 20.5555556,17.6873683 20.5555556,18.2990776 C20.5555556,18.9065516 20.0625371,19.3990066 19.4446583,19.3990066 L16.1108972,19.3990066 C15.4973656,19.3990066 15,18.9107868 15,18.2990776 Z M9.44444444,13.8993614 C9.44444444,13.2918873 9.94345133,12.7994323 10.5504417,12.7994323 L19.4495583,12.7994323 C20.0603837,12.7994323 20.5555556,13.2876521 20.5555556,13.8993614 C20.5555556,14.5068354 20.0565487,14.9992904 19.4495583,14.9992904 L10.5504417,14.9992904 C9.93961628,14.9992904 9.44444444,14.5110706 9.44444444,13.8993614 Z M9.44444444,9.49964521 C9.44444444,8.89217118 9.94345133,8.39971617 10.5504417,8.39971617 L19.4495583,8.39971617 C20.0603837,8.39971617 20.5555556,8.88793595 20.5555556,9.49964521 C20.5555556,10.1071192 20.0565487,10.5995743 19.4495583,10.5995743 L10.5504417,10.5995743 C9.93961628,10.5995743 9.44444444,10.1113545 9.44444444,9.49964521 Z" id="Combined-Shape" fill-rule="nonzero"></path>
            </g>
        </g>
    </g>
</svg>