<?xml version="1.0" encoding="UTF-8"?>
<svg width="19px" height="18px" viewBox="0 0 19 18" version="1.1" xmlns="http://www.w3.org/2000/svg" xmlns:xlink="http://www.w3.org/1999/xlink">
    <!-- Generator: Sketch 48.1 (47250) - http://www.bohemiancoding.com/sketch -->
    <title>组 13</title>
    <desc>Created with Sketch.</desc>
    <defs></defs>
    <g id="10---Performance-Copy-5" stroke="none" stroke-width="1" fill="none" fill-rule="evenodd" transform="translate(-35.000000, -35.000000)">
        <g id="nav-left" fill="#FFFFFF" fill-rule="nonzero">
            <g id="Group-18" transform="translate(20.000000, 20.000000)">
                <g id="组-13" transform="translate(15.000000, 15.000000)">
                    <path d="M8.47156554,0 L17.3076923,0 C18.242328,6.58433488e-16 19,0.757671962 19,1.69230769 L19,2.80769231 C19,3.74232804 18.242328,4.5 17.3076923,4.5 L8.47156554,4.5 C7.53692981,4.5 6.77925785,3.74232804 6.77925785,2.80769231 L6.77925785,1.69230769 C6.77925785,0.757671962 7.53692981,1.71689798e-16 8.47156554,0 Z M8.47156554,6.75 L13.3727098,6.75 C14.3073455,6.75 15.0650174,7.50767196 15.0650174,8.44230769 L15.0650174,9.55769231 C15.0650174,10.492328 14.3073455,11.25 13.3727098,11.25 L8.47156554,11.25 C7.53692981,11.25 6.77925785,10.492328 6.77925785,9.55769231 L6.77925785,8.44230769 C6.77925785,7.50767196 7.53692981,6.75 8.47156554,6.75 Z M8.47156554,13.5 L17.3076923,13.5 C18.242328,13.5 19,14.257672 19,15.1923077 L19,16.3076923 C19,17.242328 18.242328,18 17.3076923,18 L8.47156554,18 C7.53692981,18 6.77925785,17.242328 6.77925785,16.3076923 L6.77925785,15.1923077 C6.77925785,14.257672 7.53692981,13.5 8.47156554,13.5 Z M1.69230769,0 L2.82719754,0 C3.76183327,-1.71689798e-16 4.51950523,0.757671962 4.51950523,1.69230769 L4.51950523,16.3076923 C4.51950523,17.242328 3.76183327,18 2.82719754,18 L1.69230769,18 C0.757671962,18 -1.07584739e-16,17.242328 -2.22044605e-16,16.3076923 L-2.22044605e-16,1.69230769 C-3.3650447e-16,0.757671962 0.757671962,6.15779008e-16 1.69230769,4.4408921e-16 Z" id="Combined-Shape"></path>
                </g>
            </g>
        </g>
    </g>
</svg>