<?xml version="1.0" encoding="UTF-8"?>
<svg width="20px" height="20px" viewBox="0 0 20 20" version="1.1" xmlns="http://www.w3.org/2000/svg" xmlns:xlink="http://www.w3.org/1999/xlink">
    <!-- Generator: Sketch 48.1 (47250) - http://www.bohemiancoding.com/sketch -->
    <title>Group 9</title>
    <desc>Created with Sketch.</desc>
    <defs></defs>
    <g id="10---Performance-Copy-5" stroke="none" stroke-width="1" fill="none" fill-rule="evenodd" transform="translate(-35.000000, -118.000000)">
        <g id="nav-left" fill="#FFFFFF">
            <g id="Group-9" transform="translate(29.000000, 113.000000)">
                <rect id="Rectangle-4" opacity="0" x="0" y="0" width="30" height="30"></rect>
                <path d="M6.010804,13.65683 L6.86732247,22.2220147 C6.98094179,23.3582079 7.9634825,24.2495169 9.10261819,24.2495169 L21.944993,24.2495169 C23.0798957,24.2495169 24.0670221,23.35468 24.1802887,22.2220147 L25.0368072,13.65683 C25.1588394,12.4365076 24.2330428,11.4165056 23.0087967,11.4165056 L8.03881449,11.4165056 C6.81203341,11.4165056 5.8889821,12.438611 6.010804,13.65683 Z M22.896608,13.5637932 L22.0520681,22.0091926 C22.0480625,22.0492486 21.9802935,22.1106817 21.944993,22.1106817 L9.10261819,22.1106817 C9.06341034,22.1106817 8.99993367,22.053099 8.99554307,22.0091926 L8.15060825,13.5598445 L22.896608,13.5637932 Z M10.1767175,6.06941761 C10.1767175,5.47879457 10.6569996,5 11.2412132,5 L19.8063979,5 C20.3943027,5 20.8708936,5.47467685 20.8708936,6.06941761 C20.8708936,6.66004064 20.3906115,7.13883521 19.8063979,7.13883521 L11.2412132,7.13883521 C10.6533085,7.13883521 10.1767175,6.66415836 10.1767175,6.06941761 Z M8.03788233,9.27767043 C8.03788233,8.68704739 8.51906544,8.20825282 9.10261819,8.20825282 L21.944993,8.20825282 C22.5330304,8.20825282 23.0097288,8.68292965 23.0097288,9.27767043 C23.0097288,9.86829346 22.5285457,10.347088 21.944993,10.347088 L9.10261819,10.347088 C8.51458079,10.347088 8.03788233,9.8724112 8.03788233,9.27767043 Z" id="Combined-Shape" fill-rule="nonzero"></path>
            </g>
        </g>
    </g>
</svg>