<?xml version="1.0" encoding="UTF-8"?>
<svg width="20px" height="18px" viewBox="0 0 20 18" version="1.1" xmlns="http://www.w3.org/2000/svg" xmlns:xlink="http://www.w3.org/1999/xlink">
    <!-- Generator: Sketch 48.1 (47250) - http://www.bohemiancoding.com/sketch -->
    <title>Group</title>
    <desc>Created with Sketch.</desc>
    <defs></defs>
    <g id="10---Performance" stroke="none" stroke-width="1" fill="none" fill-rule="evenodd" transform="translate(-34.000000, -103.000000)">
        <g id="Menu" fill-rule="nonzero">
            <g id="Primary-Navigation">
                <g id="Accounts" transform="translate(20.000000, 20.000000)">
                    <g id="Account-2" transform="translate(0.000000, 68.000000)">
                        <g id="news" transform="translate(14.000000, 15.000000)">
                            <g id="Group">
                                <path d="M3.87096774,1.36093368 C3.87096774,0.609310766 4.44976397,0 5.16360958,0 L18.7073582,0 C19.4212645,0 20,0.609206332 20,1.36030398 L20,15.6236685 C20,16.9360802 18.9888466,18 17.7439681,18 L2.25806452,18 L2.25806452,15.9622642 L3.87096774,15.9622642 L3.87096774,1.36093368 Z M6.12903226,3.73584906 C6.12903226,4.11360127 6.41895839,4.41509434 6.77660039,4.41509434 L16.7717867,4.41509434 C17.1289208,4.41509434 17.4193548,4.11098587 17.4193548,3.73584906 C17.4193548,3.35809685 17.1294287,3.05660377 16.7717867,3.05660377 L6.77660039,3.05660377 C6.41946629,3.05660377 6.12903226,3.36071225 6.12903226,3.73584906 Z M6.12903226,6.79245283 C6.12903226,7.17020504 6.41895839,7.47169811 6.77660039,7.47169811 L16.7717867,7.47169811 C17.1289208,7.47169811 17.4193548,7.16758964 17.4193548,6.79245283 C17.4193548,6.41470062 17.1294287,6.11320755 16.7717867,6.11320755 L6.77660039,6.11320755 C6.41946629,6.11320755 6.12903226,6.41731602 6.12903226,6.79245283 Z M6.12903226,9.8490566 C6.12903226,10.2268088 6.41895839,10.5283019 6.77660039,10.5283019 L16.7717867,10.5283019 C17.1289208,10.5283019 17.4193548,10.2241934 17.4193548,9.8490566 C17.4193548,9.47130439 17.1294287,9.16981132 16.7717867,9.16981132 L6.77660039,9.16981132 C6.41946629,9.16981132 6.12903226,9.47391979 6.12903226,9.8490566 Z M6.12903226,12.9056604 C6.12903226,13.2834126 6.41895839,13.5849057 6.77660039,13.5849057 L16.7717867,13.5849057 C17.1289208,13.5849057 17.4193548,13.2807972 17.4193548,12.9056604 C17.4193548,12.5279082 17.1294287,12.2264151 16.7717867,12.2264151 L6.77660039,12.2264151 C6.41946629,12.2264151 6.12903226,12.5305236 6.12903226,12.9056604 Z" id="Shape" fill="#FFFFFF"></path>
                                <path d="M0,5.43596719 C0,4.6845863 0.579522968,4.0754717 1.28897619,4.0754717 L3.87096774,4.0754717 L3.87096774,15.9603416 C3.87096774,17.0868138 3.00224703,18 1.93548387,18 C0.866545645,18 0,17.0863728 0,15.9603416 L0,5.43596719 Z" id="Shape" fill="#E8E3F9"></path>
                            </g>
                        </g>
                    </g>
                </g>
            </g>
        </g>
    </g>
</svg>