<?xml version="1.0" encoding="UTF-8"?>
<svg width="24px" height="24px" viewBox="0 0 24 24" version="1.1" xmlns="http://www.w3.org/2000/svg" xmlns:xlink="http://www.w3.org/1999/xlink">
    <!-- Generator: Sketch 48.1 (47250) - http://www.bohemiancoding.com/sketch -->
    <title>Group 6</title>
    <desc>Created with Sketch.</desc>
    <defs></defs>
    <g id="10---Performance" stroke="none" stroke-width="1" fill="none" fill-rule="evenodd" transform="translate(-32.000000, -372.000000)">
        <g id="Menu" fill-rule="nonzero">
            <g id="Primary-Navigation">
                <g id="Accounts" transform="translate(20.000000, 20.000000)">
                    <g id="Account-3" transform="translate(0.000000, 136.000000)">
                        <g id="Group-5-Copy" transform="translate(0.000000, 136.000000)">
                            <g id="Group-6" transform="translate(12.000000, 80.000000)">
                                <circle id="Oval" fill="#FFFFFF" cx="12" cy="12" r="12"></circle>
                                <path d="M17.0909091,14.5090909 C17.0909091,16.6190083 15.7129187,18.2347107 12.9186603,18.5198347 L12.9186603,19.4892562 C12.9186603,19.9644628 12.5167464,20.3636364 12.0382775,20.3636364 C11.5023923,20.3636364 11.1004785,19.9644628 11.1004785,19.4892562 L11.1004785,18.538843 C9.569378,18.4057851 7.69377989,17.8165289 7.10047847,16.885124 C6.98564593,16.6950413 6.90909091,16.5049587 6.90909091,16.2768595 C6.90909091,15.5735537 7.50239233,15.022314 8.1722488,15.022314 C8.44019138,15.022314 8.6889952,15.0983471 8.91866029,15.2504132 C9.53110047,15.6685951 10.2583732,15.9917355 11.1004785,16.1438016 L11.1004785,13.1404959 C9.12918662,12.646281 6.98564593,11.9239669 6.98564593,9.33884298 C6.98564593,7.41900825 8.5167464,5.78429753 11.1004785,5.51818182 L11.1004785,4.51074382 C11.1004785,4.0355372 11.5023923,3.63636364 12.0382775,3.63636364 C12.5167464,3.63636364 12.9186603,4.0355372 12.9186603,4.51074382 L12.9186603,5.55619836 C14.0478469,5.68925618 15.6746412,6.12644629 16.2296651,6.94380164 C16.3444976,7.11487604 16.4210526,7.32396695 16.4210526,7.53305785 C16.4210526,8.25537189 15.7320574,8.76859505 15.0622009,8.76859505 C14.9473684,8.76859505 14.8325359,8.74958676 14.6985646,8.71157025 C14.1435407,8.55950415 13.5119617,8.12231404 12.9186603,7.98925618 L12.9186603,10.6694215 C14.8899521,11.1636364 17.0909091,11.9239669 17.0909091,14.5090909 Z M11.1004785,10.1942149 L11.1004785,7.87520662 C10.2392344,7.98925618 9.76076556,8.4644628 9.76076556,9.11074382 C9.76076556,9.66198345 10.2966507,9.96611571 11.1004785,10.1942149 Z M14.3349282,14.8132231 C14.3349282,14.1859504 13.7416268,13.8628099 12.9186603,13.5966942 L12.9186603,16.1438016 C13.8564593,15.953719 14.3349282,15.4024793 14.3349282,14.8132231 Z" id="Shape" fill="#FFBB00"></path>
                            </g>
                        </g>
                    </g>
                </g>
            </g>
        </g>
    </g>
</svg>