<?xml version="1.0" encoding="UTF-8"?>
<svg width="20px" height="17px" viewBox="0 0 20 17" version="1.1" xmlns="http://www.w3.org/2000/svg" xmlns:xlink="http://www.w3.org/1999/xlink">
    <!-- Generator: Sketch 48.1 (47250) - http://www.bohemiancoding.com/sketch -->
    <title>finance-02</title>
    <desc>Created with Sketch.</desc>
    <defs></defs>
    <g id="10---Performance-Copy-5" stroke="none" stroke-width="1" fill="none" fill-rule="evenodd" transform="translate(-34.000000, -328.000000)">
        <g id="nav-left" fill="#FFFFFF">
            <g id="finance-02" transform="translate(29.000000, 321.000000)">
                <rect id="Rectangle-4" opacity="0" x="0" y="0" width="30" height="30"></rect>
                <path d="M9.71533836,22.3821284 C9.48627205,22.6590285 9.13967176,22.8355117 8.75170274,22.8355117 L6.24898516,22.8355117 C5.5591897,22.8355117 5,22.2763637 5,21.5890526 L5,14.080595 C5,13.3921947 5.5590864,12.8341359 6.24898516,12.8341359 L8.75170274,12.8341359 C9.31734736,12.8341359 9.79516884,13.2101234 9.94884423,13.7244517 C10.7113847,13.8244192 11.4486379,14.0500245 12.1479253,14.3664029 C12.5804589,14.5620939 12.9320766,14.7597275 13.1886773,14.9261391 C13.4138592,14.9261391 15.8355614,14.9177558 15.8355614,14.9177558 C16.9664293,14.9177558 17.8537549,15.5549141 18.5405595,16.5846518 L21.2522357,16.5846518 C23.3717526,16.5846518 25.0000046,17.8539453 24.9999866,19.0786235 C25.0047326,19.8001481 23.7479881,20.9221383 22.1376527,21.8490487 C20.1491972,22.9936054 17.8499584,23.6819612 15.4225678,23.6689477 C13.0279013,23.6817854 11.2258397,23.2552759 9.93860832,22.5167522 C9.86159343,22.4725665 9.78718357,22.4276649 9.71533836,22.3821284 Z M10.0006879,20.4922527 C10.129834,20.6370423 10.373529,20.8445237 10.7681278,21.0709169 C11.7865257,21.6552027 13.2999876,22.0134068 15.4225516,22.0020756 C17.5433326,22.0134036 19.5592517,21.4098692 21.3061009,20.4043813 C21.9631759,20.0261684 22.5396463,19.6118104 22.9689025,19.2285811 C23.0648855,19.1428898 23.1576109,19.0507644 23.1576109,19.0507644 C23.1943245,19.0149934 23.1968834,18.9626358 23.1682786,18.9292233 C23.1682786,18.9292233 23.122076,18.8638549 22.9795545,18.7527532 C22.5822691,18.4430518 22.0081148,18.2515478 21.2522357,18.2515478 L19.3668655,18.2515478 C19.4502767,18.4846767 19.5142794,18.6985626 19.560349,18.8824312 C19.6921755,19.408565 19.2942892,19.9184437 18.7518917,19.9184437 L12.0843079,19.9184437 C11.6240072,19.9184437 11.2508599,19.5452964 11.2508599,19.0849958 C11.2508599,18.6246952 11.6240072,18.2515478 12.0843079,18.2515478 L17.5017198,18.2515478 C17.5017198,18.2515478 17.5273299,18.1459568 17.3477504,17.8267996 C16.8935795,17.0196256 16.3773136,16.5846518 15.8355614,16.5846518 L12.9177558,16.5846518 C12.7391141,16.5846518 12.5651994,16.527253 12.4216525,16.420918 C12.3880726,16.396043 11.7305015,16.0071078 11.4608228,15.8850972 C10.9886549,15.6714744 10.4984303,15.5110603 10.0006879,15.4198317 L10.0006879,20.4922527 Z M8.33379193,20.7691364 C8.33357259,20.7581076 8.33357325,20.7470889 8.33379193,20.7360867 L8.33379193,14.5032648 C8.33379021,14.5025207 8.33378947,14.5017764 8.33379193,14.5010319 L6.66689597,14.5010319 L6.66689597,21.1686157 L8.33379193,21.1686157 L8.33379193,20.7691375 Z M20.8355117,15.3344798 C19.4546099,15.3344798 18.3351677,14.2150377 18.3351677,12.8341359 C18.3351677,11.4532341 19.4546099,10.3337919 20.8355117,10.3337919 C22.2164135,10.3337919 23.3358556,11.4532341 23.3358556,12.8341359 C23.3358556,14.2150377 22.2164135,15.3344798 20.8355117,15.3344798 Z M20.8355117,13.6675839 C21.2958123,13.6675839 21.6689597,13.2944365 21.6689597,12.8341359 C21.6689597,12.3738353 21.2958123,12.0006879 20.8355117,12.0006879 C20.3752111,12.0006879 20.0020637,12.3738353 20.0020637,12.8341359 C20.0020637,13.2944365 20.3752111,13.6675839 20.8355117,13.6675839 Z M15.0013758,12.0006879 C13.620474,12.0006879 12.5010319,10.8812458 12.5010319,9.50034395 C12.5010319,8.11944212 13.620474,7 15.0013758,7 C16.3822776,7 17.5017198,8.11944212 17.5017198,9.50034395 C17.5017198,10.8812458 16.3822776,12.0006879 15.0013758,12.0006879 Z M15.0013758,10.3337919 C15.4616764,10.3337919 15.8348238,9.96064456 15.8348238,9.50034395 C15.8348238,9.04004334 15.4616764,8.66689597 15.0013758,8.66689597 C14.5410752,8.66689597 14.1679278,9.04004334 14.1679278,9.50034395 C14.1679278,9.96064456 14.5410752,10.3337919 15.0013758,10.3337919 Z" id="Combined-Shape" fill-rule="nonzero"></path>
            </g>
        </g>
    </g>
</svg>