<?xml version="1.0" encoding="UTF-8"?>
<svg width="20px" height="18px" viewBox="0 0 20 18" version="1.1" xmlns="http://www.w3.org/2000/svg" xmlns:xlink="http://www.w3.org/1999/xlink">
    <!-- Generator: Sketch 48.1 (47250) - http://www.bohemiancoding.com/sketch -->
    <title>Group 15</title>
    <desc>Created with Sketch.</desc>
    <defs></defs>
    <g id="10---Performance-Copy-5" stroke="none" stroke-width="1" fill="none" fill-rule="evenodd" transform="translate(-34.000000, -188.000000)">
        <g id="nav-left" fill="#FFFFFF">
            <g id="Group-15" transform="translate(29.000000, 182.000000)">
                <rect id="Rectangle-4" opacity="0" x="0" y="0" width="30" height="30"></rect>
                <path d="M24,12 L24,22.0015805 C24,23.1052771 23.1073772,24 22.0049107,24 L7.99508929,24 C6.8932319,24 6,23.1029398 6,22.0015805 L6,12 C5.44710896,12 5,11.5490248 5,10.9957349 L5,7.99791312 C5,6.89449618 5.89821238,6 7.00001277,6 L22.9999873,6 C24.1045638,6 25,6.89826062 25,7.99791312 L25,10.9957349 C25,11.5503752 24.5542301,12 24.0013542,12 L24,12 Z M8,12 L8,22 L22,22 L22,12 L8,12 Z M7,8 L7,10 L23,10 L23,8 L7,8 Z M11,15 C11,14.4477152 11.4472569,14 11.9970302,14 L18.0029698,14 C18.5536144,14 19,14.4438648 19,15 C19,15.5522848 18.5527431,16 18.0029698,16 L11.9970302,16 C11.4463856,16 11,15.5561352 11,15 Z" id="Combined-Shape" fill-rule="nonzero"></path>
            </g>
        </g>
    </g>
</svg>