<?xml version="1.0" encoding="UTF-8"?>
<svg width="20px" height="20px" viewBox="0 0 20 20" version="1.1" xmlns="http://www.w3.org/2000/svg" xmlns:xlink="http://www.w3.org/1999/xlink">
    <!-- Generator: Sketch 48.1 (47250) - http://www.bohemiancoding.com/sketch -->
    <title>Group 2</title>
    <desc>Created with Sketch.</desc>
    <defs></defs>
    <g id="10---Performance" stroke="none" stroke-width="1" fill="none" fill-rule="evenodd" transform="translate(-34.000000, -170.000000)">
        <g id="Menu" fill-rule="nonzero">
            <g id="Primary-Navigation">
                <g id="Accounts" transform="translate(20.000000, 20.000000)">
                    <g id="Account-3" transform="translate(0.000000, 136.000000)">
                        <g id="Group-4">
                            <g id="Group-2" transform="translate(14.000000, 14.000000)">
                                <path d="M13.6713075,1.35943482 L10.6599952,0.113374575 C10.2938653,-0.038127459 9.70451007,-0.0374552176 9.34000479,0.113374575 L0.659995207,3.70510264 C0.29386531,3.85660468 0,4.29865571 0,4.69395275 L0,14.9865934 C0,15.3826692 0.295489931,15.8246137 0.659995207,15.9754435 L9.34000479,19.5671716 C9.70613469,19.7186736 10.2954899,19.7180014 10.6599952,19.5671716 L19.3400048,15.9754435 C19.7061347,15.8239415 20,15.3818905 20,14.9865934 L20,4.69395275 C20,4.29787692 19.7045101,3.85593244 19.3400048,3.70510264 L16.216707,2.41270358 L6.062317,6.47445961 L6.04736255,6.4804414 C5.8639021,6.55382554 5.71428572,6.77357044 5.71428572,6.97081495 L5.71428572,10.5422435 L3.21428572,9.47081495 L3.21428572,5.8993864 C3.21428572,5.70409568 3.36391548,5.48239161 3.54849317,5.40856054 L3.57196128,5.39917333 L13.6713075,1.35943482 Z" id="Shape" fill="#FFFFFF"></path>
                                <path d="M19.3400048,4.21729962 C19.7045101,4.06646982 20,4.26387093 20,4.65994676 L20,14.9525874 C20,15.3478845 19.7061347,15.7899355 19.3400048,15.9414375 L10.6599952,19.5331656 C10.2954899,19.6839954 10,19.4865943 10,19.0905185 L10,8.79787779 C10,8.40258076 10.2938653,7.96052972 10.6599952,7.80902769 L19.3400048,4.21729962 Z" id="Shape" fill="#F7D7D2"></path>
                            </g>
                        </g>
                    </g>
                </g>
            </g>
        </g>
    </g>
</svg>