<?xml version="1.0" encoding="UTF-8"?>
<svg width="20px" height="20px" viewBox="0 0 20 20" version="1.1" xmlns="http://www.w3.org/2000/svg" xmlns:xlink="http://www.w3.org/1999/xlink">
    <!-- Generator: Sketch 48.1 (47250) - http://www.bohemiancoding.com/sketch -->
    <title>Group 2</title>
    <desc>Created with Sketch.</desc>
    <defs></defs>
    <g id="10---Performance-Copy-5" stroke="none" stroke-width="1" fill="none" fill-rule="evenodd" transform="translate(-34.000000, -258.000000)">
        <g id="nav-left" fill="#FFFFFF">
            <g id="Group-2" transform="translate(29.000000, 253.000000)">
                <rect id="Rectangle-4" opacity="0" x="0" y="0" width="30" height="30"></rect>
                <path d="M16.2933689,15.1147739 C15.9380117,15.2778707 15.7102323,15.6330382 15.7102323,16.0240359 L15.7102321,23.0690759 C15.7102321,23.8981607 15.0364877,24.5719797 14.2095471,24.5719797 C13.3788626,24.5719797 12.7088622,23.9023286 12.7088622,23.069076 L12.7088622,16.0240373 C12.7088622,15.6330397 12.4810831,15.2778724 12.1257261,15.1147755 C10.3617817,14.3051845 9.20726404,12.540486 9.20726404,10.565587 C9.20726404,8.8140218 9.99741957,7.98909364 10.2077207,7.70976085 L10.2077207,10.0619344 C10.2077207,10.6745129 10.561323,11.33675 11.0705514,11.6762356 L13.237266,13.120712 C13.8030462,13.4978988 14.6154399,13.4983043 15.1818283,13.120712 L17.3485429,11.6762356 C17.856982,11.3372762 18.2113736,10.6739567 18.2113736,10.0619344 C18.2113736,10.0619344 18.2170258,8.33550419 18.217026,7.70808763 C18.8623552,8.50867673 19.2118303,9.47948537 19.2118303,10.565587 C19.2118303,12.5404861 18.0573125,14.3051843 16.2933689,15.1147739 Z M17.7118716,4.70884367 C17.0449009,4.32302194 16.2104604,4.80432006 16.2104604,5.57484479 L16.2104604,10.0619344 L14.2095471,11.369516 L12.2086339,10.0619344 L12.2086339,5.57484479 C12.2086339,4.80432006 11.3741934,4.32302194 10.7072227,4.70884367 C8.51829648,5.97506911 7.20635079,8.07047083 7.20635079,10.565587 C7.20635079,13.3296857 8.91987092,15.8088552 10.707949,16.6370532 L10.707949,23.069076 C10.707949,25.0076361 12.2740223,26.5728929 14.2095471,26.5728929 C16.1416112,26.5728929 17.7111453,25.003185 17.7111453,23.069076 C17.7111453,23.069076 17.7119907,16.8797785 17.711991,16.6314486 C19.8481433,15.3972759 21.2127435,13.1052554 21.2127435,10.565587 C21.2127435,8.07047083 19.9007978,5.97506911 17.7118716,4.70884367 Z" id="Combined-Shape-Copy-2" fill-rule="nonzero" transform="translate(14.209547, 15.572893) rotate(45.000000) translate(-14.209547, -15.572893) "></path>
            </g>
        </g>
    </g>
</svg>