<?xml version="1.0" encoding="UTF-8"?>
<svg width="20px" height="21px" viewBox="0 0 20 21" version="1.1" xmlns="http://www.w3.org/2000/svg" xmlns:xlink="http://www.w3.org/1999/xlink">
    <!-- Generator: Sketch 48.1 (47250) - http://www.bohemiancoding.com/sketch -->
    <title>Group 3</title>
    <desc>Created with Sketch.</desc>
    <defs></defs>
    <g id="10---Performance" stroke="none" stroke-width="1" fill="none" fill-rule="evenodd" transform="translate(-34.000000, -238.000000)">
        <g id="Menu" fill-rule="nonzero">
            <g id="Primary-Navigation">
                <g id="Accounts" transform="translate(20.000000, 20.000000)">
                    <g id="Account-3" transform="translate(0.000000, 136.000000)">
                        <g id="Group-5" transform="translate(0.000000, 68.000000)">
                            <g id="Group-3" transform="translate(14.000000, 14.000000)">
                                <path d="M9.39589282,12.650094 L3.86889923,6.82379898 L1.75140283,6.33702313 L0,2.74538857 L1.65572657,1 L5.06285605,2.84624591 L5.52462581,5.07841037 L11.0516194,10.9047054 L11.3343086,10.606719 C11.9402137,9.9680025 12.9252578,9.97082528 13.5304801,10.6088219 L18.5174122,15.8658097 C19.1244191,16.5056877 19.1228598,17.5447786 18.5194071,18.1809097 L16.2983128,20.5222822 C15.6924077,21.1609988 14.7073636,21.158176 14.1021413,20.5201793 L9.11520912,15.2631915 C8.50820224,14.6233136 8.50976161,13.5842227 9.11321422,12.9480915 L9.39589812,12.6500996 L9.39589282,12.650094 Z" id="Shape" fill="#D2EAFC"></path>
                                <path d="M9.2265306,8.48312024 C8.24262188,6.27893084 8.61779573,3.56846412 10.3511038,1.74506495 C12.0798349,-0.0735193286 14.6473575,-0.470913959 16.7396345,0.553870956 L13.5921882,3.48153921 C13.1249768,3.9161264 12.8469025,4.78804865 12.9687576,5.43120329 L13.1327194,6.29659794 C13.214134,6.72630669 13.6084425,7.1390769 14.0145065,7.22421713 L14.8371434,7.39670107 C15.4491425,7.52502014 16.2782869,7.23126281 16.6904778,6.74086686 L19.4734949,3.4298276 C20.4476469,5.63085361 20.0698869,8.33182683 18.3411558,10.1504111 C16.6078507,11.9738072 14.0313094,12.368483 11.9360272,11.3334408 C11.8822646,11.4098721 11.8235734,11.4835634 11.7599493,11.5540119 L4.6591389,19.4164713 C3.82109946,20.3444008 2.44430321,20.3629553 1.58585453,19.4598875 L1.50159312,19.3712465 C0.642304499,18.4672952 0.662255494,17.0183491 1.54286422,16.1382239 L9.01685257,8.66833886 C9.08383254,8.60139563 9.15388436,8.53965942 9.2265306,8.48312024 Z" id="Shape" fill="#FFFFFF"></path>
                            </g>
                        </g>
                    </g>
                </g>
            </g>
        </g>
    </g>
</svg>