<?xml version="1.0" encoding="UTF-8"?>
<svg width="20px" height="18px" viewBox="0 0 20 18" version="1.1" xmlns="http://www.w3.org/2000/svg" xmlns:xlink="http://www.w3.org/1999/xlink">
    <!-- Generator: Sketch 48.1 (47250) - http://www.bohemiancoding.com/sketch -->
    <title>Rectangle-917</title>
    <desc>Created with Sketch.</desc>
    <defs>
        <linearGradient x1="0%" y1="0%" x2="100%" y2="100%" id="linearGradient-1">
            <stop stop-color="#0CB1E6" offset="0%"></stop>
            <stop stop-color="#23ECA4" offset="100%"></stop>
        </linearGradient>
    </defs>
    <g id="10---Performance-Copy-5" stroke="none" stroke-width="1" fill="none" fill-rule="evenodd" transform="translate(-1001.000000, -345.000000)">
        <g id="life" transform="translate(524.000000, 134.000000)" fill="url(#linearGradient-1)" fill-rule="nonzero">
            <g id="info" transform="translate(382.000000, 112.000000)">
                <g id="Group-29" transform="translate(0.000000, 96.000000)">
                    <g id="Group-23">
                        <g id="Group-28" transform="translate(95.000000, 0.000000)">
                            <g id="weather-08" transform="translate(0.000000, 3.000000)">
                                <path d="M16,12 L5.0024733,12 C4.4485131,12 4,11.5522848 4,11 C4,10.4438648 4.4488226,10 5.0024733,10 L16,10 C18.209139,10 20,11.790861 20,14 C20,16.209139 18.209139,18 16,18 C13.790861,18 12,16.209139 12,14 C12,13.4477153 12.4477152,13 13,13 C13.5522848,13 14,13.4477153 14,14 C14,15.1045695 14.8954305,16 16,16 C17.1045695,16 18,15.1045695 18,14 C18,12.8954305 17.1045695,12 16,12 Z M10,6 L0.99539757,6 C0.44910619,6 0,6.44771525 0,7 C0,7.5561352 0.44565467,8 0.99539757,8 L10,8 C12.209139,8 14,6.209139 14,4 C14,1.790861 12.209139,0 10,0 C7.790861,0 6,1.790861 6,4 C6,4.55228475 6.44771525,5 7,5 C7.55228475,5 8,4.55228475 8,4 C8,2.8954305 8.8954305,2 10,2 C11.1045695,2 12,2.8954305 12,4 C12,5.1045695 11.1045695,6 10,6 Z M0,15 C0,14.4477152 0.44910619,14 0.99539757,14 L9.00460245,14 C9.55434535,14 10,14.4438648 10,15 C10,15.5522847 9.5508938,16 9.00460245,16 L0.99539757,16 C0.44565467,16 0,15.5561352 0,15 Z M0,11 C0,10.4477152 0.44913031,10 0.99895656,10 L2.00104344,10 C2.55275192,10 3,10.4438648 3,11 C3,11.5522848 2.55086969,12 2.00104344,12 L0.99895656,12 C0.447248085,12 0,11.5561352 0,11 Z" id="Rectangle-917"></path>
                            </g>
                        </g>
                    </g>
                </g>
            </g>
        </g>
    </g>
</svg>